<?xml version="1.0" encoding="utf-8"?>
<!-- Generator: Adobe Illustrator 27.5.0, SVG Export Plug-In . SVG Version: 6.00 Build 0)  -->
<svg version="1.1" id="cherry" xmlns="http://www.w3.org/2000/svg" xmlns:xlink="http://www.w3.org/1999/xlink" x="0px" y="0px"
	 viewBox="0 0 599.5 633.6" style="enable-background:new 0 0 599.5 633.6;" xml:space="preserve">
<style type="text/css">
	.st0{fill:#FF1744;}
	.st1{fill:#D50000;}
	.st2{fill:#FFCDD2;}
	.st3{fill:#795548;}
	.st4{fill:#4CAF50;}
</style>
<path id="fruit" class="st0" d="M590.1,408.3c-68.3-206.7-225-55-225-55s-21.7,1.7-46.7,10c-53.3-51.7-153.3-20-153.3-20
	s-185-61.7-163.3,145c10,88.3,78.3,145,173.3,145c48.3,0,90-15,120-40c50,45,123.3,53.3,196.7,20
	C581.8,573.3,618.5,493.3,590.1,408.3L590.1,408.3z"/>
<path id="shading" class="st1" d="M346.8,488.3c-5,43.3-23.3,78.3-51.7,103.3c25,23.3,85,66.7,196.7,21.7
	c-51.7-10-90-43.3-96.7-108.3l0,0c-6.7-65,45-183.3,88.3-205c-60-1.7-118.3,53.3-118.3,53.3s-21.7,1.7-46.7,10
	C339,402.8,351.7,441.2,346.8,488.3z"/>
<path id="highlight" class="st2" d="M68.4,498.3c-6.7,0-15-5-16.7-13.3C35,416.7,75,388.3,91.7,378.3c8.3-5,18.3-1.7,21.7,6.7
	c5,8.3,1.7,18.3-6.7,21.7C90.1,415,73.4,433.3,83.4,475C86.7,490.1,81.9,498.1,68.4,498.3z"/>
<path id="stems" class="st3" d="M355.2,101.7c-27.5,120.2,31.3,236.6,42.9,255.9c9.5,22.9-20.8,32.8-29.7,17.2
	C297.2,241.6,309.6,140.1,331.7,77c1.5-4.2-3.4-7.7-6.9-5.1C177.2,181.5,183.4,365,183.4,366.8c0,8.3-6.7,16.7-16.7,16.7
	c-8.3,0-16.7-8.3-16.7-16.7c0-1.7-8.3-254.3,222.4-359.6c20.6-6.9,30.4,9.7,19.9,26L355.2,101.7"/>
<path id="leaf" class="st4" d="M533.5,216.7C503.5,185,581.9,0,383.5,0C270.2,220,533.5,216.7,533.5,216.7z"/>
</svg>
