<?xml version="1.0" encoding="utf-8"?>
<!-- Generator: Adobe Illustrator 27.5.0, SVG Export Plug-In . SVG Version: 6.00 Build 0)  -->
<svg version="1.1" id="grapes" xmlns="http://www.w3.org/2000/svg" xmlns:xlink="http://www.w3.org/1999/xlink" x="0px" y="0px"
	 viewBox="0 0 591.4 764.3" style="enable-background:new 0 0 591.4 764.3;" xml:space="preserve">
<style type="text/css">
	.st0{fill:#56C140;}
	.st1{fill:#16992B;}
	.st2{fill:#A47FD6;}
	.st3{fill:#8866B9;}
	.st4{fill:#744DB2;}
</style>
<path id="stem" class="st0" d="M235.8,282.1c-5.8,0-11.5-1.7-16.4-5C112.4,205.4,29.4,93.8,7.1,40.9C0.8,25.9,7.8,8.6,22.7,2.3
	C37.7-4,55,3,61.3,17.9c16.4,38.8,91.6,143.7,190.9,210.2c13.5,9.1,17.1,27.4,8.1,40.9C254.6,277.5,245.3,282.1,235.8,282.1
	L235.8,282.1z"/>
<path id="leaf" class="st1" d="M60.9,38.4c0,0,1-1,3-2.5c1.9-1.6,4.6-3.7,8.6-6s8.5-4.8,13.8-7.2c5.6-2.5,11.4-4.7,17.3-6.5
	c6.4-2,12.9-3.6,19.5-4.8c6.6-1.3,13.5-2.2,20.2-2.7C150,8.1,156.6,8,163,8c6.4,0,12.6,0.5,18.6,0.9s11.8,0.9,17.5,1.5l17,1.6
	c5.6,0.4,11.4,1,17.1,1.2l4.4,0.2l4.3,0.1c1.5,0.1,2.9,0.1,4.3,0.1h4.3c5.7,0,11.3-0.1,16.5-0.4c5.3-0.1,10-0.6,14.3-0.7
	c4.1-0.3,7.6-0.5,10-0.5c2.4-0.1,3.8-0.1,3.8-0.1h0.1c1.7,0,3.1,1.4,3.1,3.1l0,0c0,0,0,1.4-0.2,3.8c-0.1,1.2-0.2,2.8-0.5,4.5
	s-0.5,3.8-1,6c-0.5,2.4-1.1,4.8-1.8,7.2c-0.4,1.3-0.8,2.6-1.2,4l-1.6,4.2c-2.2,5.8-5.4,11.9-9.5,18.3c-2.1,3.1-4.4,6.5-7,9.6
	c-1.3,1.6-2.7,3.2-4.1,4.8c-1.4,1.6-3,3.1-4.6,4.7c-6.3,6.3-13.8,12-22.1,17.1c-8.3,5.1-17.5,9.3-26.9,12.7
	c-9.5,3.3-19.3,5.6-29,7.1c-9.3,1.4-18.8,2-28.2,1.7c-9.1-0.2-17.6-1.4-25.6-3.1c-8-1.7-15.3-4-22.1-6.7c-6.3-2.5-12.4-5.5-18.3-8.9
	c-5.1-2.9-9.9-6.2-14.6-9.7c-4.2-3.2-8-6.4-10.9-9.2c-1.5-1.4-2.7-2.7-4-3.9c-1.1-1-2.2-2-3.2-3.1c-1.8-1.7-2.7-2.8-2.7-2.8
	C50.4,62.9,51.4,47.7,60.9,38.4L60.9,38.4z"/>
<path id="light-grapes" class="st2" d="M330.1,94.4c67.6,0,122.5,54.8,122.5,122.5s-54.8,122.5-122.5,122.5s-122.5-54.8-122.5-122.5
	S262.5,94.4,330.1,94.4z M137.7,335.1c64,0,115.9,51.9,115.9,115.9s-51.9,115.9-115.9,115.9S21.8,515.1,21.8,451
	S73.7,335.1,137.7,335.1z M449.8,401.7c63.8,0,115.4,51.7,115.4,115.4s-51.7,115.4-115.4,115.4s-115.4-51.7-115.4-115.4
	S386.1,401.7,449.8,401.7z"/>
<path id="medium-grapes" class="st3" d="M122.1,133c67.5,0,122.1,54.7,122.1,122.1s-54.7,122.1-122.1,122.1S0,322.6,0,255.1
	S54.7,133,122.1,133z M466.8,230.8c68.8,0,124.6,55.8,124.6,124.6S535.6,480,466.8,480s-124.6-55.8-124.6-124.6
	S398,230.8,466.8,230.8z M298.7,467.7c68.8,0,124.6,55.8,124.6,124.6S367.5,717,298.7,717s-124.6-55.8-124.6-124.6
	S229.9,467.7,298.7,467.7z"/>
<path id="dark-grapes" class="st4" d="M476,533.4c63.8,0,115.4,51.7,115.4,115.4S539.7,764.3,476,764.3s-115.4-51.7-115.4-115.4
	S412.2,533.4,476,533.4z M280.9,278.8c74.3,0,134.5,60.2,134.5,134.5s-60.2,134.5-134.5,134.5s-134.5-60.2-134.5-134.5
	S206.6,278.8,280.9,278.8z"/>
</svg>
