<?xml version="1.0" encoding="utf-8"?>
<!-- Generator: Adobe Illustrator 27.5.0, SVG Export Plug-In . SVG Version: 6.00 Build 0)  -->
<svg version="1.1" id="lemon" xmlns="http://www.w3.org/2000/svg" xmlns:xlink="http://www.w3.org/1999/xlink" x="0px" y="0px"
	 viewBox="0 0 770.5 693" style="enable-background:new 0 0 770.5 693;" xml:space="preserve">
<style type="text/css">
	.st0{fill:#75432E;}
	.st1{fill:#16992B;}
	.st2{fill:#FFD731;}
	.st3{fill:#FFE9AB;}
	.st4{fill:#56C140;}
</style>
<path id="stem" class="st0" d="M591.3,161.6l3.9-5.5l2.1-2.9c0.8-1.1,1.5-2.1,2.6-3.5l7.3-9c2.7-3.2,5.8-6.3,9-9.8
	c1.6-1.7,3.5-3.3,5.3-5.1l2.8-2.6c0.9-0.9,1.9-1.8,2.9-2.6c4.1-3.3,8.2-6.9,12.8-10c4.4-3.3,9.4-6.1,14.3-9.1
	c5.1-2.6,10.1-5.3,15.3-7.4l3.9-1.6c1.3-0.5,2.6-0.9,3.9-1.4c2.6-0.9,5.1-1.8,7.7-2.6l7.5-2.1c2.5-0.6,4.9-1.1,7.2-1.6l3.5-0.7
	l3.4-0.5c2.2-0.3,4.4-0.7,6.4-1c4.1-0.4,7.9-0.9,11.2-1.1s6.2-0.4,8.5-0.4l7.4-0.1h0.3c13.8-0.2,25.2,10.8,25.4,24.6
	s-10.8,25.2-24.6,25.5c-0.4,0-0.8,0-1.2,0l-5.9-0.2c-1.9-0.1-4.1,0-6.7,0c-2.6,0-5.4,0.2-8.5,0.4l-4.7,0.5l-2.5,0.2l-2.5,0.4
	c-1.7,0.3-3.5,0.5-5.2,0.9l-5.4,1.2c-1.8,0.4-3.6,1-5.4,1.5c-0.9,0.3-1.9,0.5-2.8,0.8l-2.7,1c-3.7,1.2-7.3,2.9-10.9,4.5
	c-3.5,1.9-7.1,3.6-10.4,5.9c-3.5,2-6.6,4.5-9.7,6.8c-0.8,0.5-1.5,1.2-2.3,1.8l-2.2,1.9c-1.4,1.2-2.9,2.4-4.2,3.6
	c-2.6,2.6-5.2,5-7.3,7.2l-5.6,6.2c-0.8,0.8-1.7,2.1-2.5,3.1l-2.2,2.8l-4.2,5.3l-0.6,0.7c-7.4,9.4-21,11-30.3,3.6
	C586.4,184.1,584.7,171,591.3,161.6L591.3,161.6z"/>
<path id="dark-leaf" class="st1" d="M613.4,155.9l-0.5-0.6c-0.3-0.4-0.9-1-1.4-1.8c-1.2-1.5-2.8-3.9-4.7-6.6c-1-1.2-2-2.5-3.2-3.8
	l-1.6-2l-1.8-2.1c-1.2-1.4-2.3-2.9-3.6-4.3c-1.3-1.4-2.5-2.8-3.8-4.2c-2.6-2.7-5.1-5.1-7.6-7.2c-0.7-0.5-1.1-1.1-1.8-1.6
	s-1.2-1-1.8-1.5s-1.2-1-1.8-1.4l-0.8-0.7l-0.9-0.7c-2.2-2-4.4-4.1-6.7-6.7c-2.3-2.6-4.6-5.8-7.3-9.4c-3-4-5.8-8.1-8.5-12.3
	c-2.9-4.6-5.9-9.6-8.5-14.9c-2.7-5.4-5-10.9-6.9-16.7c-0.9-2.8-1.7-5.8-2.4-8.5c-0.6-2.9-1.1-5.6-1.5-8.4
	c-0.7-5.5-0.8-10.6-0.4-15.2c0.3-4,0.9-8,2-11.8c0.2-0.8,0.4-1.6,0.6-2.3l0.7-2c0.4-1.2,0.9-2.3,1.3-3.2c0.4-0.8,0.7-1.5,0.9-1.9
	l0.3-0.7c1.5-2.9,5-4.2,8-2.8l0.5,0.2l2.5,1.2c1.6,0.8,3.7,1.9,6.4,3.2l2.1,1l2.1,1.1c0.8,0.4,1.6,0.7,2.4,1.1l2.4,1.1l10.6,4.7
	c0.9,0.4,1.8,0.8,2.8,1.2l2.8,1.3c2,0.9,3.8,1.8,5.8,2.7c3.9,1.9,8,4.1,12.1,6.6c4.2,2.5,8.5,5.5,12.9,9c4.8,3.8,9.3,8.1,13.4,12.6
	c4.4,4.8,8.8,10.6,12.6,17.1c3.7,6.5,6.9,13.8,8.8,21.4c1.9,7.6,2.7,15.4,2.2,22.5c-0.3,7.2-2,13.8-4.1,19.4
	c-0.5,1.4-1.1,2.8-1.8,4.1c-0.6,1.3-1.2,2.5-1.9,3.7c-0.6,1.2-1.4,2.3-2.1,3.4c-0.7,1.1-1.5,2.1-2.1,3.1c-0.7,1-1.5,1.9-2.2,2.8
	c-0.7,0.9-1.5,1.7-2.2,2.6c-1.6,1.6-2.9,3-4.2,4.2c-1.2,0.9-2.5,1.8-3.8,2.6c-1.1,0.7-2.1,1.4-3,1.9c-0.8,0.5-1.5,0.9-2,1.1
	l-0.7,0.4C619.1,159.2,615.5,158.5,613.4,155.9L613.4,155.9z"/>
<path id="fruit" class="st2" d="M667,255.6c-0.3-4.9-0.8-9-1-11.6c-0.1-1.3-0.3-2.4-0.4-3.1l-0.1-1.1c-6.8-52.7-41-100.6-93.7-122.2
	l-1-0.4c-0.7-0.3-1.7-0.7-2.9-1.2c-2.5-0.9-6.3-2.5-11-4c-9.5-3.4-22.9-7.6-38.9-11.7c-18.1-4.6-36.3-8.2-54.8-10.8
	c-20.1-2.9-41.8-4.7-64-4.8s-44.9,1.5-67.4,5.1s-44.8,9.4-66.4,17.3c-21.6,8-42.4,18.1-61.9,30.4c-19.6,12.3-38,26.7-55,42.9
	c-17.2,16.4-32.9,34.3-46.9,53.4c-14.2,19.3-26.7,40.2-37.6,62c-10.7,22-19.8,45-27.2,68.3c-7.4,23.4-13.1,47.2-17.2,70.6
	c-4.1,23.5-6.7,46.4-8.1,68c-1.3,19.6-1.7,39.3-1.3,59l0.4,12.5l0.7,11.4l0.3,5.1c0.1,1.6,0.2,3.2,0.3,4.8l0.4,4.4L5.9,609
	c-5.8,8.5-7.8,19.7-4,30.1C8.1,656.2,27,665,44,658.8l10.5-3.8l4.1,1.5c1.5,0.6,3,1.1,4.5,1.6l4.9,1.6l10.8,3.6l11.9,3.6
	c18.9,5.5,38,10.2,57.3,14.1c21.2,4.2,44,7.6,67.8,9.8c23.7,2.1,48.1,2.8,72.6,1.7s49-3.9,73-8.7c23.9-4.8,47.3-11.5,69.7-20.2
	c22.2-8.5,43.5-19.1,63.8-31.4c20.1-12.2,38.8-26.2,55.8-41.9c16.9-15.7,32.1-33,45.4-51.9c13.2-18.8,24.6-38.8,33.9-59.6
	c9.4-20.8,16.8-42.3,22.5-63.8c5.7-21.4,9.5-42.8,12-63c2.3-18.5,3.5-37.1,3.8-55.7C668.4,279.7,667.9,265.7,667,255.6L667,255.6z"
	/>
<path id="highlight" class="st3" d="M323.6,220.9c-18.1,0-35.2-11.1-41.9-29.1c-8.7-23.1,3.1-48.9,26.2-57.6
	c44.1-16.5,92.5-18.7,136.3-6.3c23.8,6.8,37.6,31.5,30.8,55.3c-6.8,23.8-31.5,37.6-55.3,30.8c-25.5-7.2-54-5.8-80.4,4.1
	C334.2,219.9,328.9,220.9,323.6,220.9L323.6,220.9z"/>
<path id="light-leaf" class="st4" d="M728,418.5c0,0-1.1-1.3-2.9-3.8c-0.8-1.2-2-2.8-3.1-4.5l-0.8-1.4c-0.3-0.5-0.7-0.8-1.1-1.2
	l-2.3-2.3c-1.6-1.6-3.2-2.9-5.2-4.8l-2.9-2.7l-1.5-1.3c-0.5-0.4-1.1-0.9-1.7-1.3l-3.3-2.7c-0.6-0.4-1-0.9-1.7-1.3l-1.8-1.3l-3.5-2.6
	l-3.8-2.6c-2.4-1.7-5.3-3.5-7.8-5.3c-0.6-0.4-1.4-0.9-2.1-1.4l-2.1-1.4c-1.4-1-2.8-1.9-4.2-2.9c-1.5-1-2.9-2-4.3-3.1
	c-1.5-1.1-3.1-2.2-4.5-3.4l-4.6-3.6c-1.6-1.3-3.1-2.6-4.7-3.9c-1.6-1.4-3.2-2.7-4.8-4.2c-1.7-1.5-3.3-3-5-4.5
	c-1.7-1.6-3.4-3.2-5-4.9c-1.7-1.7-3.3-3.3-5-5.2c-1.7-1.8-3.4-3.7-5.1-5.6c-1.7-2-3.4-4-5.1-6c-1.7-2-3.4-4.3-5-6.4
	c-1.6-2.2-3.3-4.4-4.9-6.8c-6.5-9.3-12.7-19.9-17.7-31.5c-5.1-11.4-8.7-24.3-10.7-37.1c-0.4-3.2-0.8-6.4-1.1-9.7
	c-0.3-3.2-0.3-6.5-0.3-9.7c-0.2-6.3,0.5-12.7,1.3-18.7c0.8-6,2.4-11.8,3.8-17.3c0.9-2.6,1.8-5.3,2.8-7.9c1-2.5,2-5,3.1-7.4
	c2.4-4.7,4.8-9,7.3-13c1.3-2,2.7-3.8,4.1-5.6c1.3-1.7,2.7-3.4,4.1-5c5.3-6.4,11.4-11,16.1-14.7c5.2-3.5,9.5-5.9,12.6-7.5
	c1.5-0.8,2.8-1.3,3.6-1.7l1.3-0.5c4.9-2.1,10.5-0.4,13.4,4l0.4,0.7l0.8,1.2c0.5,0.8,1.3,1.9,2.1,3.3c1.8,2.8,4.2,6.8,6.9,11.4
	l4.6,7.4c1.6,2.6,3.1,5.2,5,7.9s3.6,5.4,5.4,8.1c1.9,2.6,3.8,5.2,5.7,7.9l3,3.8c1,1.2,1.9,2.5,2.8,3.7l3,3.5c1,1.2,1.8,2.3,2.8,3.5
	c2,2.3,3.6,4.5,5.6,6.7l1.3,1.6c0.4,0.6,0.8,1.1,1.3,1.7c0.9,1.1,1.8,2.2,2.7,3.4c3.6,4.6,6.7,9.3,10.2,15l1.2,2.1
	c0.4,0.7,0.9,1.5,1.3,2.2l1.3,2.3c0.4,0.8,0.8,1.6,1.3,2.4c0.9,1.6,1.8,3.3,2.7,4.9c0.9,1.7,1.9,3.5,2.8,5.2
	c0.9,1.8,1.9,3.7,2.9,5.5l2.9,5.8c1,2,2,4,3,6c1,2.1,2,4.2,3,6.4l3,6.6c1,2.3,2,4.6,2.9,6.9c2,4.8,3.8,9.6,5.5,14.5
	c0.9,2.5,1.7,5.1,2.5,7.6c0.8,2.6,1.6,5,2.3,7.8c0.7,2.6,1.3,5.3,2,7.9c0.6,2.7,1.2,5.5,1.7,8.1c0.2,1.4,0.5,2.6,0.7,4l0.6,4.1
	c0.4,2.7,0.7,5.3,0.9,8.1c0.4,5.5,0.6,10.6,0.4,16c-0.1,2.6-0.2,5.1-0.5,7.6s-0.6,5-1,7.3c-0.6,4.6-2,9.2-3.1,13.2
	c-0.3,1-0.6,2-0.9,3c-0.4,1-0.7,1.9-1.1,2.9c-0.8,1.9-1.5,3.6-2.3,5.3c-1.4,3.2-3.3,6.6-4.9,9.2c-3.2,5.8-6.5,8.1-8.7,10.3
	c-2.2,2.1-3.6,3.1-3.6,3.1C739.2,424.2,732,423.4,728,418.5L728,418.5z"/>
</svg>
