<?xml version="1.0" encoding="UTF-8"?>
<svg id="logo" xmlns="http://www.w3.org/2000/svg" viewBox="0 0 35.85 21.2">
  <defs>
    <style>
      .cls-1 {
        fill: #1c75bc;
      }

      .cls-2 {
        fill: #414042;
      }

      .cls-3 {
        fill: #27aae1;
      }

      .cls-4 {
        fill: #2b3990;
      }
    </style>
  </defs>
  <g id="burple-text">
    <path class="cls-4" d="m0,5.5l.84-.33h.35v4.19c.1-.17.23-.33.38-.48s.33-.28.52-.4.38-.2.58-.27.39-.1.58-.1c.35,0,.67.07.96.21s.54.33.76.57.38.52.5.85.18.67.18,1.03c0,.5-.09.96-.26,1.39s-.41.81-.71,1.13-.66.58-1.06.76-.84.28-1.3.28-.86-.06-1.26-.18-.74-.29-1.05-.53V5.5Zm1.2,7.75c.07.07.16.14.24.22s.19.14.3.2.23.11.37.15.29.06.45.06c.28,0,.53-.07.76-.2s.42-.32.58-.56.29-.53.38-.86.13-.69.13-1.08c0-.3-.05-.58-.14-.83s-.22-.49-.38-.68-.34-.35-.56-.46-.44-.17-.68-.17c-.14,0-.28.02-.42.06s-.28.09-.41.16-.25.14-.36.23-.2.18-.27.28v3.49Z"/>
    <path class="cls-4" d="m8.54,8.23v4.27c0,.15.03.29.1.42s.16.25.28.35.26.17.42.23.33.08.51.08c.12,0,.24-.03.38-.08s.27-.12.4-.21.25-.19.36-.31.21-.25.28-.38v-4.38h1.18v6h-1.18v-1.12c-.11.17-.24.33-.4.49s-.33.29-.51.4-.37.2-.57.27-.38.1-.56.1c-.26,0-.51-.05-.74-.15s-.43-.23-.6-.4-.31-.37-.41-.59-.15-.47-.15-.72v-4.27h1.2Z"/>
    <path class="cls-4" d="m15.42,8.12h.18l.16,1.22c.09-.18.21-.34.35-.49s.3-.28.47-.39.35-.19.54-.25.38-.09.58-.09c.18,0,.35.02.52.07s.33.12.48.22l-.38,1c-.08-.09-.16-.16-.25-.21s-.17-.09-.26-.12-.18-.05-.28-.06-.19-.01-.28-.01c-.15,0-.29.02-.44.06s-.28.11-.41.19-.25.19-.36.32-.21.28-.29.46v4.18h-1.19v-5.78l.85-.33Z"/>
    <path class="cls-4" d="m20.61,8.12h.34v1.35c.12-.15.25-.31.4-.47s.31-.31.49-.44.37-.24.59-.32.45-.12.7-.12c.36,0,.68.07.97.22s.54.35.74.6.36.55.47.89.17.71.17,1.09c0,.5-.07.95-.21,1.37s-.33.78-.59,1.09-.56.54-.93.71-.77.25-1.22.25c-.16,0-.32,0-.46-.03s-.28-.04-.4-.08-.25-.08-.37-.13-.24-.12-.36-.2v2.84h-1.2v-8.3l.86-.33Zm.34,4.49c0,.18.04.35.12.51s.19.3.33.42.31.21.5.28.41.1.64.1.43-.06.63-.17.37-.27.52-.48.26-.46.35-.75.13-.61.13-.96c0-.44-.04-.83-.12-1.16s-.19-.6-.33-.82-.3-.38-.49-.49-.4-.16-.62-.16c-.17,0-.34.03-.5.08s-.31.12-.45.21-.27.19-.39.31-.23.24-.32.37v2.72Z"/>
    <path class="cls-4" d="m28.38,14.23h-1.2V5.51l.85-.34h.35v9.06Z"/>
    <path class="cls-4" d="m33.02,14.36c-.41,0-.79-.08-1.15-.23s-.67-.36-.93-.62-.48-.57-.63-.92-.23-.73-.23-1.13c0-.48.07-.92.21-1.33s.34-.76.6-1.06.57-.53.93-.7.76-.25,1.21-.25c.39,0,.75.07,1.08.21s.61.32.85.56.42.5.55.81.2.62.2.96h-4.47c0,.4.05.78.16,1.12s.25.64.44.89.41.45.67.59.54.21.85.21c.26,0,.51-.04.74-.13s.45-.19.65-.33.36-.29.49-.47.23-.36.29-.54l.35.15c-.09.31-.22.6-.42.87s-.41.5-.67.71-.53.36-.83.48-.61.18-.91.18Zm1.18-4.2c0-.23-.04-.44-.12-.63s-.19-.36-.33-.51-.3-.25-.49-.34-.39-.12-.6-.12c-.18,0-.35.04-.52.12s-.31.19-.44.33-.24.31-.32.51-.13.41-.15.63h2.97Z"/>
  </g>
  <g id="bubbles">
    <rect class="cls-1" x="5.64" y="2.94" width="1.82" height="1.82" rx=".91" ry=".91"/>
    <rect class="cls-1" x="21.7" y="2.44" width="1.82" height="1.82" rx=".91" ry=".91"/>
    <rect class="cls-3" x="18.84" y="4.65" width="2.33" height="2.33" rx="1.16" ry="1.16"/>
    <rect class="cls-3" x="17.43" y="0" width="2.03" height="2.03" rx="1.01" ry="1.01"/>
    <rect class="cls-1" x="14.8" y="3.35" width="1.82" height="1.82" rx=".91" ry=".91"/>
    <rect class="cls-3" x="10.63" y="4.65" width="1.82" height="1.82" rx=".91" ry=".91"/>
    <rect class="cls-1" x="10.63" y=".67" width="2.27" height="2.27" rx="1.13" ry="1.13"/>
  </g>
  <g id="sparkling-water-text">
    <path class="cls-2" d="m23.22,16.69s.07,0,.1-.02c.03-.01.06-.03.08-.05.02-.02.04-.04.05-.07s.02-.05.02-.08c0-.04-.01-.08-.03-.11-.02-.03-.05-.06-.08-.08-.04-.02-.08-.05-.12-.07-.04-.02-.09-.04-.14-.06-.05-.02-.09-.05-.14-.07s-.08-.05-.12-.09c-.03-.03-.06-.07-.08-.12-.02-.04-.03-.1-.03-.15,0-.06.01-.11.04-.15s.06-.09.1-.12.09-.06.15-.08c.06-.02.12-.03.19-.03.05,0,.09,0,.13,0,.04,0,.08.02.12.04.04.02.08.04.11.08s.08.08.12.13l-.1.09c-.05-.09-.11-.15-.17-.19s-.13-.06-.21-.06c-.04,0-.08,0-.11.01-.03,0-.06.02-.08.04-.02.02-.04.04-.05.06s-.02.05-.02.07c0,.04.01.08.03.11s.05.06.09.08.08.05.13.07.1.04.15.06c.05.02.1.05.15.07.05.02.09.05.13.09.04.03.07.07.09.11.02.04.04.09.04.15s-.01.11-.03.16c-.02.05-.05.1-.1.13-.04.04-.1.07-.17.09-.07.02-.14.03-.23.03-.04,0-.08,0-.13,0s-.09-.02-.13-.04-.09-.04-.13-.08c-.04-.03-.09-.08-.13-.13l.11-.1s.07.09.1.12c.03.03.06.06.09.08.03.02.06.04.1.05.03,0,.07.01.11.01Z"/>
    <path class="cls-2" d="m24.4,15.34h.08v.31s.06-.07.09-.11c.03-.04.07-.07.11-.1s.09-.06.14-.07c.05-.02.1-.03.16-.03.08,0,.16.02.22.05.07.03.12.08.17.14.05.06.08.13.11.21.03.08.04.16.04.25,0,.11-.02.22-.05.32-.03.1-.08.18-.14.25-.06.07-.13.13-.21.16-.08.04-.18.06-.28.06-.04,0-.07,0-.11,0-.03,0-.06-.01-.09-.02s-.06-.02-.09-.03-.05-.03-.08-.05v.66h-.28v-1.92l.2-.08Zm.08,1.04s0,.08.03.12c.02.04.04.07.08.1.03.03.07.05.12.06.04.02.09.02.15.02s.1-.01.15-.04c.05-.03.09-.06.12-.11.03-.05.06-.11.08-.17s.03-.14.03-.22c0-.1,0-.19-.03-.27-.02-.08-.04-.14-.08-.19-.03-.05-.07-.09-.11-.11s-.09-.04-.14-.04c-.04,0-.08,0-.11.02-.04.01-.07.03-.1.05-.03.02-.06.04-.09.07-.03.03-.05.06-.07.09v.63Z"/>
    <path class="cls-2" d="m26.85,16.75s-.07-.04-.09-.08c-.02-.03-.04-.07-.04-.11-.03.02-.06.05-.1.08s-.07.05-.1.07c-.04.02-.08.04-.12.05-.04.01-.1.02-.16.02-.05,0-.1,0-.15-.03s-.08-.04-.11-.07c-.03-.03-.05-.07-.07-.11s-.03-.09-.03-.14c0-.06.01-.11.04-.16s.06-.09.1-.13c.04-.04.09-.07.14-.1.05-.03.11-.06.17-.08s.12-.04.19-.06c.06-.02.13-.03.19-.05v-.09c0-.06,0-.12-.01-.16s-.02-.08-.04-.1c-.02-.03-.04-.05-.07-.06-.03-.01-.06-.02-.11-.02s-.07,0-.11.02c-.03.02-.06.04-.09.06-.03.03-.05.06-.06.09s-.03.07-.03.11h-.25c0-.06.03-.11.06-.16.03-.05.08-.09.13-.12.05-.03.11-.06.17-.07s.13-.03.2-.03c.09,0,.17,0,.23.03s.11.04.15.07c.04.03.06.07.08.12.02.05.02.1.02.15v.86s.01.08.04.11c.02.03.06.06.09.08h-.28Zm-.13-.81s-.08.03-.12.04c-.04.02-.08.03-.12.06-.04.02-.08.04-.12.07s-.07.05-.1.08c-.03.03-.05.06-.07.08-.02.03-.02.06-.02.09s0,.07.02.1.03.06.05.08c.02.02.04.04.07.05s.06.02.08.02c.03,0,.06,0,.09-.01.03,0,.06-.02.08-.03.03-.01.05-.03.08-.05s.05-.04.08-.06v-.52Z"/>
    <path class="cls-2" d="m27.71,15.34h.04l.04.28s.05-.08.08-.11c.03-.03.07-.06.11-.09.04-.03.08-.04.12-.06.04-.01.09-.02.13-.02.04,0,.08,0,.12.02.04.01.08.03.11.05l-.09.23s-.04-.04-.06-.05c-.02-.01-.04-.02-.06-.03s-.04-.01-.06-.01c-.02,0-.04,0-.07,0-.03,0-.07,0-.1.01-.03.01-.06.02-.09.04-.03.02-.06.04-.08.07s-.05.07-.07.11v.97h-.28v-1.34l.2-.08Z"/>
    <path class="cls-2" d="m29.03,15.93l.7-.56h.18l-.62.51.77.88h-.36l-.66-.76v.76h-.28v-2.02l.2-.08h.08v1.27Z"/>
    <path class="cls-2" d="m30.61,16.75h-.28v-2.02l.2-.08h.08v2.09Z"/>
    <path class="cls-2" d="m31.17,14.84s0-.04.01-.06c0-.02.02-.04.03-.05.01-.01.03-.03.05-.03.02,0,.04-.01.06-.01s.04,0,.06.01c.02,0,.04.02.05.03.01.01.03.03.03.05,0,.02.01.04.01.06s0,.04-.01.06-.02.04-.03.05c-.01.01-.03.03-.05.03-.02,0-.04.01-.06.01s-.04,0-.06-.01c-.02,0-.04-.02-.05-.03s-.03-.03-.03-.05c0-.02-.01-.04-.01-.06Zm.02.58l.19-.08h.08v1.41h-.27v-1.33Z"/>
    <path class="cls-2" d="m32.23,15.34h.08v.28c.08-.09.17-.16.26-.21.09-.05.18-.07.28-.07.05,0,.09.01.14.03.04.02.08.05.11.09.03.04.06.08.07.13.02.05.03.11.03.16v.99h-.28v-.95s0-.09-.02-.12c-.01-.03-.03-.06-.05-.09-.02-.02-.04-.04-.07-.05-.03-.01-.06-.02-.09-.02-.03,0-.06,0-.09.02-.03,0-.07.02-.1.04-.03.02-.07.04-.1.06-.03.02-.07.05-.1.08v1.03h-.28v-1.34l.2-.08Z"/>
    <path class="cls-2" d="m35.06,15.44v.12h-.26s.05.08.06.13.02.09.02.14c0,.07-.02.14-.05.2-.03.06-.08.11-.13.15-.06.04-.12.08-.2.1-.08.02-.17.03-.26.03-.04,0-.07,0-.11,0-.04,0-.07-.01-.1-.02-.03.02-.05.05-.07.08-.02.03-.03.06-.03.09s.02.05.05.07.07.03.13.03l.51.02c.08,0,.15.01.21.03s.1.04.13.06c.03.03.06.06.07.09s.02.08.02.12c0,.08-.02.15-.06.22-.04.07-.09.12-.16.17-.07.05-.16.08-.26.11s-.22.04-.34.04c-.11,0-.21,0-.3-.02s-.16-.03-.21-.06-.1-.05-.13-.09c-.03-.03-.04-.07-.04-.12,0-.04,0-.07.03-.11.02-.04.04-.07.07-.1.03-.03.06-.06.1-.09s.07-.06.11-.09c-.03,0-.05-.02-.07-.03-.02-.01-.04-.02-.06-.04-.02-.01-.03-.03-.04-.05s-.01-.03-.01-.05c0-.03,0-.06.02-.09s.04-.06.06-.09c.03-.03.06-.05.09-.08.03-.02.07-.04.11-.05-.09-.04-.17-.1-.22-.17s-.08-.15-.08-.24c0-.07.01-.13.05-.19.03-.06.07-.11.13-.16.05-.05.12-.08.19-.11.07-.03.15-.04.24-.04.04,0,.08,0,.12,0s.08.01.11.02c.04,0,.07.02.09.03.03.01.05.02.06.04h.4Zm-1.11,1.3s-.04.03-.05.05c-.02.02-.03.04-.04.06-.01.02-.02.04-.02.06,0,.02,0,.04,0,.06,0,.03.01.06.03.09.02.03.05.05.1.07.04.02.1.04.16.05s.14.02.23.02c.09,0,.17,0,.25-.02.07-.01.13-.03.19-.06.05-.02.09-.05.12-.08.03-.03.04-.06.04-.09s0-.06-.02-.08c-.02-.02-.04-.04-.07-.06-.03-.01-.07-.03-.11-.03-.04,0-.09-.01-.14-.01-.07,0-.13,0-.2,0-.07,0-.13,0-.19-.01s-.11,0-.15-.01c-.04,0-.08,0-.09-.01Zm.34-.51s.08,0,.11-.03.07-.04.1-.07.05-.07.07-.11c.02-.04.02-.09.02-.13,0-.07,0-.13-.03-.19-.02-.06-.04-.11-.08-.15-.03-.04-.07-.08-.11-.1-.04-.02-.09-.04-.13-.04s-.09,0-.12.03-.06.05-.08.08c-.02.03-.04.07-.05.12,0,.05-.02.09-.02.15,0,.06,0,.12.02.17s.04.1.07.14c.03.04.06.07.1.09.04.02.08.03.13.03Z"/>
    <path class="cls-2" d="m22.87,18.14l.44,1.01.44-1.01.44,1.01.39-1.01h.13l-.57,1.4h-.09l-.39-.91-.39.91h-.09l-.61-1.4h.3Z"/>
    <path class="cls-2" d="m25.9,19.53s-.07-.04-.09-.08c-.02-.03-.04-.07-.04-.11-.03.02-.06.05-.1.08s-.07.05-.1.07c-.04.02-.08.04-.12.05-.04.01-.1.02-.16.02-.05,0-.1,0-.15-.03s-.08-.04-.11-.07c-.03-.03-.05-.07-.07-.11s-.03-.09-.03-.14c0-.06.01-.11.04-.16s.06-.09.1-.13c.04-.04.09-.07.14-.1.05-.03.11-.06.17-.08s.12-.04.19-.06c.06-.02.13-.03.19-.05v-.09c0-.06,0-.12-.01-.16s-.02-.08-.04-.1c-.02-.03-.04-.05-.07-.06-.03-.01-.06-.02-.11-.02s-.07,0-.11.02c-.03.02-.06.04-.09.06-.03.03-.05.06-.06.09s-.03.07-.03.11h-.25c0-.06.03-.11.06-.16.03-.05.08-.09.13-.12.05-.03.11-.06.17-.07s.13-.03.2-.03c.09,0,.17,0,.23.03s.11.04.15.07c.04.03.06.07.08.12.02.05.02.1.02.15v.86s.01.08.04.11c.02.03.06.06.09.08h-.28Zm-.13-.81s-.08.03-.12.04c-.04.02-.08.03-.12.06-.04.02-.08.04-.12.07s-.07.05-.1.08c-.03.03-.05.06-.07.08-.02.03-.02.06-.02.09s0,.07.02.1.03.06.05.08c.02.02.04.04.07.05s.06.02.08.02c.03,0,.06,0,.09-.01.03,0,.06-.02.08-.03.03-.01.05-.03.08-.05s.05-.04.08-.06v-.52Z"/>
    <path class="cls-2" d="m26.85,17.67h.08v.47h.31v.12h-.31v.98s0,.04.01.06.02.03.03.05c.01.01.03.02.05.03.02,0,.04.01.06.01.03,0,.06,0,.08-.02.03-.02.05-.03.07-.06l.07.05c-.04.06-.09.11-.15.15s-.13.06-.22.06c-.05,0-.09,0-.12-.02-.04-.02-.06-.04-.08-.07-.02-.03-.04-.06-.05-.1-.01-.04-.02-.08-.02-.13v-.98h-.24v-.05l.24-.07v-.39l.2-.08Z"/>
    <path class="cls-2" d="m28.32,19.56c-.09,0-.18-.02-.26-.05s-.15-.08-.22-.14-.11-.13-.15-.21c-.04-.08-.05-.17-.05-.26,0-.11.02-.21.05-.31.03-.09.08-.18.14-.24.06-.07.13-.12.21-.16.08-.04.18-.06.28-.06.09,0,.17.02.25.05.08.03.14.07.2.13s.1.12.13.19.04.14.04.22h-1.03c0,.09.01.18.04.26.02.08.06.15.1.21.04.06.09.1.15.14.06.03.12.05.2.05.06,0,.12,0,.17-.03.06-.02.11-.04.15-.08.04-.03.08-.07.12-.11.03-.04.05-.08.07-.13l.08.04c-.02.07-.05.14-.1.2-.04.06-.1.12-.16.16-.06.05-.12.08-.19.11-.07.03-.14.04-.21.04Zm.27-.97c0-.05,0-.1-.03-.15-.02-.05-.04-.08-.08-.12-.03-.03-.07-.06-.11-.08-.04-.02-.09-.03-.14-.03-.04,0-.08,0-.12.03s-.07.04-.1.08c-.03.03-.05.07-.07.12-.02.05-.03.09-.03.15h.69Z"/>
    <path class="cls-2" d="m29.63,18.12h.04l.04.28s.05-.08.08-.11c.03-.03.07-.06.11-.09.04-.03.08-.04.12-.06.04-.01.09-.02.13-.02.04,0,.08,0,.12.02.04.01.08.03.11.05l-.09.23s-.04-.04-.06-.05-.04-.02-.06-.03-.04-.01-.06-.01c-.02,0-.04,0-.07,0-.03,0-.07,0-.1.01-.03.01-.06.02-.09.04-.03.02-.06.04-.08.07s-.05.07-.07.11v.97h-.28v-1.34l.2-.08Z"/>
  </g>
</svg>