<?xml version="1.0" encoding="utf-8"?>
<!-- Generator: Adobe Illustrator 27.5.0, SVG Export Plug-In . SVG Version: 6.00 Build 0)  -->
<svg version="1.1" id="mango" xmlns="http://www.w3.org/2000/svg" xmlns:xlink="http://www.w3.org/1999/xlink" x="0px" y="0px"
	 viewBox="0 0 784.1 738.9" style="enable-background:new 0 0 784.1 738.9;" xml:space="preserve">
<style type="text/css">
	.st0{fill:#77B255;}
	.st1{fill:#EA564B;}
	.st2{fill:#F97253;}
</style>
<path id="stem" class="st0" d="M583.5,54.5c10.7-0.9,28-14.6,37-13.2c9,1.3,35,24,37.1,28.5c2.2,4.6-14.2,26.2-16.6,32.9
	c-2.4,6.7-14.2,5.3-33.6-12.1C588.2,73.3,583.5,54.5,583.5,54.5L583.5,54.5z"/>
<path id="fruit" class="st1" d="M270.6,45.7c101-59.1,250.4-58,304.1-12.9c35.9,30.2,65.4,53.4,99.4,66.9
	c44.9,17.9,82,70.1,98.1,119.6c21.8,67.2,37.3,279.5-178.4,411.5c-138.5,84.7-392.4,119.2-421.4,105
	c-21.9-10.7-102.7-46.4-148.3-143.4S-32.1,222.8,270.6,45.7z"/>
<path id="highlight" class="st2" d="M382.4,33.8C499,0.9,586.2,81.3,532.4,87c-96.9,10.3-200.3,110.4-280.6,186.1
	C104.6,412,71.3,578.7,51.8,550.9C20.2,505.7,19.2,347.6,130.9,209S333.3,47.7,382.4,33.8L382.4,33.8z"/>
<path id="leaf" class="st0" d="M625.5,71c48.3,15.5,110.8,101.4,109.9,173.6c-2.5,192.3-91.8,266.5-91.8,266.5
	s-56.7-207.3-48.3-282.7c6.2-55.1,36.6-70.4,42-101.5C642.5,97.9,625.5,71,625.5,71L625.5,71z"/>
</svg>
