<?xml version="1.0" encoding="utf-8"?>
<!-- Generator: Adobe Illustrator 27.5.0, SVG Export Plug-In . SVG Version: 6.00 Build 0)  -->
<svg version="1.1" id="orange" xmlns="http://www.w3.org/2000/svg" xmlns:xlink="http://www.w3.org/1999/xlink" x="0px" y="0px"
	 viewBox="0 0 737.8 775.3" style="enable-background:new 0 0 737.8 775.3;" xml:space="preserve">
<style type="text/css">
	.st0{fill:#FF7100;}
	.st1{fill:#30C03F;}
	.st2{fill:#97CF43;}
	.st3{fill:#FFA05F;}
	.st4{fill:#5A4530;}
</style>
<path id="fruit" class="st0" d="M0,406.4c0,203.7,165.2,368.9,368.9,368.9s368.9-165.2,368.9-368.9S572.7,37.5,368.9,37.5
	S0,202.6,0,406.4z"/>
<path id="dark-leaf" class="st1" d="M367.4,156.2c-16.2-34.9,15.2-83.8,70.1-109.2c54.8-25.4,112.4-17.8,128.6,17.1L367.4,156.2z"/>
<path id="light-leaf" class="st2" d="M367.4,156.2c16.2,34.9,73.7,42.5,128.6,17.1c54.9-25.4,86.2-74.3,70.1-109.2L367.4,156.2z"/>
<path id="specks" class="st3" d="M240.7,157.2c0,10.2,8.3,18.5,18.5,18.5s18.5-8.3,18.5-18.5s-8.3-18.5-18.5-18.5
	C249,138.7,240.7,147,240.7,157.2z M150,230c0,10.2,8.3,18.5,18.5,18.5S187,240.2,187,230s-8.3-18.5-18.5-18.5
	C158.3,211.5,150,219.8,150,230z M532.2,204.5c0,10.2,8.3,18.5,18.5,18.5s18.5-8.3,18.5-18.5l0,0c0-10.2-8.3-18.5-18.5-18.5
	S532.2,194.2,532.2,204.5L532.2,204.5z M622.9,288.2c0,10.2,8.3,18.5,18.5,18.5s18.5-8.3,18.5-18.5l0,0c0-10.2-8.3-18.5-18.5-18.5
	S622.9,278,622.9,288.2L622.9,288.2z M550.7,324.6c0,10.2,8.3,18.5,18.5,18.5s18.5-8.3,18.5-18.5l0,0c0-10.2-8.3-18.5-18.5-18.5
	S550.7,314.4,550.7,324.6L550.7,324.6z M444.9,255.7c0,10.2,8.3,18.5,18.5,18.5s18.5-8.3,18.5-18.5l0,0c0-10.2-8.3-18.5-18.5-18.5
	C453.1,237.2,444.9,245.5,444.9,255.7L444.9,255.7z M637.5,426.5c0,10.2,8.3,18.5,18.5,18.5s18.5-8.3,18.5-18.5l0,0
	c0-10.2-8.3-18.5-18.5-18.5C645.8,408,637.5,416.3,637.5,426.5L637.5,426.5z"/>
<path id="stem" class="st4" d="M363.7,160.2c0,0-21.5-135.3-6.4-150.4s26.5-9.5,32.2-4.3c11.8,10.7-12.9,124.6-12.9,139.6
	C376.6,160.2,370.1,175.2,363.7,160.2L363.7,160.2z M329.6,158.1c0,0,25.9-4.1,42.3,0s17.7,5.5,20.5,9.6c2.7,4.1-19.1,2.7-19.1,2.7
	s-15-4.1-24.6-4.1h-16.4C332.3,166.3,321.4,162.2,329.6,158.1z"/>
</svg>
