<?xml version="1.0" encoding="utf-8"?>
<!-- Generator: Adobe Illustrator 27.5.0, SVG Export Plug-In . SVG Version: 6.00 Build 0)  -->
<svg version="1.1" id="peach" xmlns="http://www.w3.org/2000/svg" xmlns:xlink="http://www.w3.org/1999/xlink" x="0px" y="0px"
	 viewBox="0 0 750 749.6" style="enable-background:new 0 0 750 749.6;" xml:space="preserve">
<style type="text/css">
	.st0{fill:#8E6244;}
	.st1{fill:#FF9463;}
	.st2{fill:#8CC63E;}
	.st3{fill:#7FB539;}
	.st4{fill:#D97448;}
</style>
<path id="fruit-stem" class="st0" d="M405,88.4c0-28.8-42.5-33.8-42.5-6.2c0,32.5-17.5,45-17.5,62.5c0,22.5,50,26.3,50,2.5
	C395,124.6,405,127.1,405,88.4"/>
<path id="fruit" class="st1" d="M30,383.4c0-202.5,165-326.2,340-231.2c180-91.3,380,28.7,380,231.2c0,181.2-100,283.8-225,330
	c-45,16.2-130,37.4-177.5,36.2c-35-1.2-33.8-18.8-67.5-28.8C143.8,680.8,30,575.8,30,383.4"/>
<path id="leaf-stem" class="st2" d="M380,78.4c-1.2,0-2.5-1.2-3.8-2.5c-25-37.5-48.8-28.8-48.8-28.8L325,34.6c0,0,30-10,60,32.5
	c1.2,2.5,1.2,7.5,0,8.8C382.5,78.4,381.3,78.4,380,78.4"/>
<path id="dark-leaf" class="st3" d="M278.8,0.8C153.8-11.6,25,132.1,25,132.1s87.5-32.5,162.5-17.5c76.2,16.2,143.8-75,143.8-75
	S313.8,3.4,278.8,0.8L278.8,0.8z"/>
<path id="light-leaf" class="st2" d="M162.5,99.6C97.5,187.1,0,237.1,0,237.1s186.2,18.8,298.8-110c32.5-36.3,32.5-88.8,32.5-88.8
	S228.7,10.8,162.5,99.6z"/>
<path id="shading" class="st4" d="M481.2,398.4c5,45,3.8,88.7-8.8,131.2c-12.5,42.5-35,81.2-72.5,115c52.5-20,91.2-58.8,111.2-102.5
	c21.2-43.8,27.5-93.7,21.2-142.5s-23.8-98.8-53.7-143.8c-28.7-45-72.5-88.8-128.7-113.8c43.8,37.5,71.2,80,92.5,123.8
	C462.5,308.4,475,353.4,481.2,398.4"/>
</svg>
