<?xml version="1.0" encoding="utf-8"?>
<!-- Generator: Adobe Illustrator 27.5.0, SVG Export Plug-In . SVG Version: 6.00 Build 0)  -->
<svg version="1.1" id="strawberry" xmlns="http://www.w3.org/2000/svg" xmlns:xlink="http://www.w3.org/1999/xlink" x="0px" y="0px"
	 viewBox="0 0 633.4 650" style="enable-background:new 0 0 633.4 650;" xml:space="preserve">
<style type="text/css">
	.st0{fill:#689F38;}
	.st1{fill:#8BC34A;}
	.st2{fill:#FF1744;}
	.st3{fill:#D50000;}
	.st4{fill:#FFC107;}
</style>
<path id="dark-leaf" class="st0" d="M530.2,196.9c-46.9,46.9-128.9,35.2-128.9,35.2s-11.7-82.1,35.2-128.9
	c46.9-46.9,128.9-35.1,128.9-35.1S577.1,150,530.2,196.9L530.2,196.9z"/>
<path id="light-leafs" class="st1" d="M408.8,253.8c106.1,11.7,224,129.6,224,129.6s11.8-82.5-70.7-141.4
	C479.5,183,408.8,253.8,408.8,253.8L408.8,253.8z M381.4,224.6c-11.7-106.1-129.6-224-129.6-224s82.5-11.8,141.4,70.7
	C452.1,153.9,381.4,224.6,381.4,224.6L381.4,224.6z"/>
<path id="fruit" class="st2" d="M486.7,523.4c-89.5,89.5-344.7,183.5-444.1,84c-99.4-99.4-5.5-354.6,84-444.1s200.6-39.4,300.1,60
	C526.1,322.8,576.2,433.9,486.7,523.4L486.7,523.4z"/>
<path id="specks" class="st3" d="M170.5,187.3c16.3-16.3,42.6-16.3,58.9,0s16.3,42.6,0,58.9s-46.5,20.2-62.8,3.9
	C150.4,233.8,154.3,203.6,170.5,187.3z M307.7,284.2c16.3-16.3,42.6-16.3,58.9,0s16.3,42.6,0,58.9s-46.5,20.1-62.8,3.9
	C287.5,330.6,291.4,300.4,307.7,284.2L307.7,284.2z M90.8,500.4c16.3-16.3,42.6-16.3,58.9,0c16.3,16.3,16.3,42.6,0,58.9
	c-16.3,16.3-46.5,20.2-62.8,3.9S74.5,516.6,90.8,500.4z M404.9,419.5c16.3-16.3,42.6-16.3,58.9,0s16.3,42.6,0,58.9
	s-46.5,20.1-62.8,3.9C384.8,466.1,388.6,435.8,404.9,419.5L404.9,419.5z M124.1,333.7c16.3-16.3,42.6-16.3,58.9,0s16.3,42.6,0,58.9
	s-46.5,20.1-62.8,3.9S107.9,349.9,124.1,333.7z M238.3,469.5c16.3-16.3,42.6-16.3,58.9,0s16.3,42.6,0,58.9
	c-16.3,16.3-46.5,20.1-62.8,3.9C218.1,516.1,222,485.8,238.3,469.5z"/>
<path id="seeds" class="st4" d="M211.8,228.5c-6.5,6.5-38.6,28.1-45.1,21.5c-6.5-6.5,15-38.6,21.5-45.1s17.1-6.5,23.6,0
	S218.3,222,211.8,228.5L211.8,228.5z M349,325.4c-6.5,6.5-38.6,28.1-45.1,21.5c-6.5-6.5,15-38.6,21.5-45.1s17.1-6.5,23.6,0
	S355.5,318.9,349,325.4z M132,541.6c-6.5,6.5-38.6,28.1-45.1,21.5c-6.5-6.5,15-38.6,21.5-45.1c6.5-6.5,17.1-6.5,23.6,0
	C138.5,524.6,138.5,535.1,132,541.6z M446.2,460.8c-6.5,6.5-38.6,28.1-45.1,21.5c-6.5-6.5,15-38.6,21.6-45.1
	c6.5-6.5,17.1-6.5,23.6,0S452.7,454.3,446.2,460.8z M165.4,374.9c-6.5,6.5-38.6,28.1-45.1,21.5s15-38.6,21.6-45.1
	c6.5-6.5,17.1-6.5,23.6,0S171.9,368.4,165.4,374.9L165.4,374.9z M279.5,510.8c-6.5,6.5-38.6,28.1-45.1,21.5
	c-6.5-6.5,15-38.6,21.5-45.1c6.5-6.5,17.1-6.5,23.6,0C286,493.7,286,504.3,279.5,510.8L279.5,510.8L279.5,510.8z"/>
</svg>
