<?xml version="1.0" encoding="utf-8"?>
<!-- Generator: Adobe Illustrator 27.5.0, SVG Export Plug-In . SVG Version: 6.00 Build 0)  -->
<svg version="1.1" id="watermelon" xmlns="http://www.w3.org/2000/svg" xmlns:xlink="http://www.w3.org/1999/xlink" x="0px" y="0px"
	 viewBox="0 0 753.3 632.7" style="enable-background:new 0 0 753.3 632.7;" xml:space="preserve">
<style type="text/css">
	.st0{fill:#7A9C41;}
	.st1{fill:#FFF6A0;}
	.st2{fill:#FF6C75;}
	.st3{fill:#2F2F2F;}
	.st4{fill:#C1CA32;}
</style>
<path id="skin" class="st0" d="M166,58.1c-3.3-5.9-42.2-44.9-42.2-44.9S115.2,0,97.4,0S74.2,17.7,61.1,40.4
	C49.9,59.8-0.6,140.5,0,266.1c0.5,107,24.1,164.5,72.9,226.6C115.2,546.4,209.6,603,316,622.8c106.3,19.8,249,11.9,328.9-43.6
	c79.9-55.4,95.8-117.4,103.1-162.5c9.3-57.3,7.6-132.1-15.4-140.6c-20.4-7.4-51.2,8.8-51.2,8.8L166,58.1L166,58.1z"/>
<path id="rind" class="st1" d="M655.6,258.9l23.2,0.8l40.4,14.6c0,0-106.1,222.4-320,271.3C198.1,591.5,50.3,493.3,33.5,309.2
	C16,116.6,121,9.8,121,9.8l29.2,15.4l157,290.9L655.6,258.9L655.6,258.9z"/>
<path id="fruit" class="st2" d="M173.4,473.2c112.1,79.9,298.7,29.3,396.7-72.8c101.7-106,108.8-140.8,108.8-140.8
	S558.5,210.2,499,182S263.5,76.8,235.3,63.2c-28.2-13.6-86.6-38.9-86.6-38.9S96.6,94.5,77.1,188.5S68.1,398.1,173.4,473.2z"/>
<path id="seeds" class="st3" d="M242.3,179.1c1.3,5.4-2.1,24.9-28.3,36.8c-13.6,6.2-24.2,0.3-28-9.1c-4.2-10.5,1.9-24.2,16.8-30.6
	C220,168.8,241.4,175.2,242.3,179.1z M289.5,256.5c8.1,7.4-2.4,31.2-8,38.5s-22.7,23.1-36.5,8.2c-14.2-15.4,3.9-33.7,9.8-38.6
	C260.6,259.8,281.6,249.2,289.5,256.5L289.5,256.5z M373.4,287.8c-8.1-0.4-25.9,17.7-23.2,39.2c2.5,19.4,12.7,23.3,21.1,23.9
	c8.3,0.6,18.9-7.5,20.4-27.6C393.4,301,379.3,288.1,373.4,287.8L373.4,287.8z M459,269.3c-5.7,4-8.2,25,1.9,41.8
	c8.1,13.3,22.2,19.6,33.6,10.8c11.4-8.9,9.5-25-2.9-38.9C479.2,269,464.3,265.5,459,269.3L459,269.3z"/>
<path id="skin-pattern" class="st4" d="M722.9,356.1c2.5,4,5.9,12.6-0.2,23.4c-5.4,9.5-11.8,14.4-10,26.5s11.1,10,10.6,34.4
	c-0.4,17.9-13.6,31.1-25.2,40.4c-11.6,9.3-18.8,17-19.8,32.9c-1.1,16.3-3.9,31.1-13.6,40.4c-17.3,16.2-31.8,6.6-47.1,21.9
	c-12.1,12.1-9.8,23.9-9.8,23.9s-11.9,5.8-33.1,12.6c-26.2,8.3-40.8,9.9-40.8,9.9s14.9-11.2,19.1-23.6c4.1-12.3,8-31.6,22.4-43.4
	c28.6-22.6,48.6-5.1,61.2-18c11.3-11.6-2.3-25.9,12.3-52.9c12.2-22.4,38.3-22.4,40.1-39.6s-9.4-19.2-6.2-41.1
	C686.9,376.2,721.6,354.1,722.9,356.1L722.9,356.1z M333.4,625.8c0,0,4-19.7,28.2-27.4c15.4-6.2,28.8,2.8,43.9-2.3
	c15.2-5.1,17-24.7,39.3-35.8c22.4-11.1,38.6,4.9,59.9-2.3c21.3-7.2,11.3-33.9,30.3-52.7c22.9-22.6,43.4-7.3,59.9-19.6
	c22.1-16.4,16.9-43.8,33.7-44.2c8.8-0.2,13.1,16.4,7.7,37c-5.4,20.6-20.6,32.4-35.2,37c-15.7,4.9-24.4,1.3-35.5,16.2
	c-7.5,10.1-10.7,33.1-32.1,46c-31.9,19.3-43.7,6.9-61.9,19.3c-21.3,17-23.4,35.1-23.4,35.1s-37.3,1.2-55.1,0.2
	C365.2,630.6,333.5,625.8,333.4,625.8L333.4,625.8z M205.1,587.8c0,0,34.2,2.6,51.9,1s51.2-6.9,53.2,8.8
	c2.1,15.7-15.2,20.8-15.2,20.8s-28.6-6.2-47.1-12.9C229.4,598.9,205.1,587.8,205.1,587.8L205.1,587.8z"/>
</svg>
